<svg width="92" height="92" viewBox="0 0 92 92" fill="none" xmlns="http://www.w3.org/2000/svg">
<circle cx="46" cy="46" r="46" fill="#1649FF"/>
<path fill-rule="evenodd" clip-rule="evenodd" d="M38.2713 28.9894L36.6611 32.4779H31.7605C28.8114 32.4779 26.3509 34.5379 25.7819 37.2764C25.7006 37.6677 25.6579 38.0727 25.6579 38.4876V41.4925C25.6579 44.2584 27.9348 46.5006 30.7434 46.5006H38.2104C39.0482 44.1664 41.3087 42.4941 43.9658 42.4941H48.0342C50.6913 42.4941 52.9518 44.1664 53.7896 46.5006H61.2565C64.0652 46.5006 66.3421 44.2584 66.3421 41.4925V38.4876C66.3421 35.1685 63.6098 32.4779 60.2394 32.4779H55.3389L53.7287 28.9894C52.7384 26.844 50.5662 25.4666 48.173 25.4666H43.8269C41.4338 25.4666 39.2616 26.844 38.2713 28.9894ZM48.173 29.473H43.8269C43.0292 29.473 42.3051 29.9322 41.975 30.6473L41.1301 32.4779H50.8699L50.0249 30.6473C49.6948 29.9322 48.9708 29.473 48.173 29.473Z" fill="white"/>
<path d="M38.2104 50.507H30.7434C29.2006 50.507 27.7469 50.1312 26.4717 49.4673C26.1124 49.2803 25.6579 49.5284 25.6579 49.9334V60.5232C25.6579 63.8423 28.3901 66.5329 31.7605 66.5329H60.2394C63.6098 66.5329 66.3421 63.8423 66.3421 60.5232V49.9334C66.3421 49.5284 65.8875 49.2803 65.5283 49.4673C64.2531 50.1312 62.7994 50.507 61.2565 50.507H53.7896C52.9518 52.8412 50.6913 54.5135 48.0342 54.5135H43.9658C41.3087 54.5135 39.0482 52.8412 38.2104 50.507Z" fill="white"/>
<path d="M43.9658 46.5006C42.8423 46.5006 41.9316 47.3974 41.9316 48.5038C41.9316 49.6101 42.8423 50.507 43.9658 50.507H48.0342C49.1577 50.507 50.0684 49.6101 50.0684 48.5038C50.0684 47.3974 49.1577 46.5006 48.0342 46.5006H43.9658Z" fill="white"/>
</svg>
