<svg width="93" height="92" viewBox="0 0 93 92" fill="none" xmlns="http://www.w3.org/2000/svg">
<g clip-path="url(#clip0_1065:20953)">
<circle cx="46.1444" cy="46" r="46" fill="#1649FF"/>
<path fill-rule="evenodd" clip-rule="evenodd" d="M23.7786 31.2899C23.0226 32.7737 23.0226 34.7161 23.0226 38.6009V53.3989C23.0226 57.2837 23.0226 59.2261 23.7786 60.7099C24.4437 62.0151 25.5048 63.0763 26.81 63.7413C28.2938 64.4974 30.2362 64.4974 34.1211 64.4974H58.1678C62.0526 64.4974 63.995 64.4974 65.4788 63.7413C66.784 63.0763 67.8452 62.0151 68.5102 60.7099C69.2662 59.2261 69.2662 57.2837 69.2662 53.3989V38.6009C69.2662 34.7161 69.2662 32.7737 68.5102 31.2899C67.8452 29.9847 66.784 28.9235 65.4788 28.2585C63.995 27.5024 62.0526 27.5024 58.1678 27.5024H34.1211C30.2362 27.5024 28.2938 27.5024 26.81 28.2585C25.5048 28.9235 24.4437 29.9847 23.7786 31.2899ZM35.8915 37.1567C34.8384 36.4343 33.3992 36.7024 32.6768 37.7554C31.9544 38.8084 32.2225 40.2476 33.2755 40.97L42.2205 47.1063C44.585 48.7283 47.7038 48.7283 50.0683 47.1063L59.0133 40.97C60.0663 40.2476 60.3344 38.8084 59.612 37.7554C58.8896 36.7024 57.4504 36.4343 56.3973 37.1567L47.4524 43.2929C46.6642 43.8336 45.6246 43.8336 44.8364 43.2929L35.8915 37.1567Z" fill="white"/>
</g>
<defs>
<clipPath id="clip0_1065:20953">
<rect width="92" height="92" fill="white" transform="translate(0.144409)"/>
</clipPath>
</defs>
</svg>
