<svg width="93" height="92" viewBox="0 0 93 92" fill="none" xmlns="http://www.w3.org/2000/svg">
<g clip-path="url(#clip0_1065:20957)">
<circle cx="46.8906" cy="46" r="46" fill="#1649FF"/>
<rect x="25.9921" y="24.5039" width="42.1894" height="43.1046" fill="white"/>
<path d="M66.5103 22.4563H27.2709C26.2302 22.4563 25.2322 22.8697 24.4963 23.6056C23.7604 24.3415 23.347 25.3395 23.347 26.3802V65.6196C23.347 66.6603 23.7604 67.6584 24.4963 68.3943C25.2322 69.1301 26.2302 69.5436 27.2709 69.5436H66.5103C67.551 69.5436 68.5491 69.1301 69.2849 68.3943C70.0208 67.6584 70.4342 66.6603 70.4342 65.6196V26.3802C70.4342 25.3395 70.0208 24.3415 69.2849 23.6056C68.5491 22.8697 67.551 22.4563 66.5103 22.4563V22.4563ZM66.5103 64.6386C66.5103 64.8988 66.4069 65.1483 66.223 65.3323C66.039 65.5163 65.7895 65.6196 65.5293 65.6196H28.2519C27.9917 65.6196 27.7422 65.5163 27.5582 65.3323C27.3743 65.1483 27.2709 64.8988 27.2709 64.6386V27.3612C27.2709 27.101 27.3743 26.8515 27.5582 26.6676C27.7422 26.4836 27.9917 26.3802 28.2519 26.3802H65.5293C65.7895 26.3802 66.039 26.4836 66.223 26.6676C66.4069 26.8515 66.5103 27.101 66.5103 27.3612V64.6386Z" fill="white"/>
<path d="M59.6434 30.3042H34.1378C32.7833 30.3042 31.6853 31.4022 31.6853 32.7567V37.6616C31.6853 39.016 32.7833 40.114 34.1378 40.114H59.6434C60.9978 40.114 62.0958 39.016 62.0958 37.6616V32.7567C62.0958 31.4022 60.9978 30.3042 59.6434 30.3042Z" fill="#1649FF"/>
<path d="M43.9476 44.0381H33.1568C32.3441 44.0381 31.6853 44.6969 31.6853 45.5096V46.4905C31.6853 47.3032 32.3441 47.962 33.1568 47.962H43.9476C44.7603 47.962 45.4191 47.3032 45.4191 46.4905V45.5096C45.4191 44.6969 44.7603 44.0381 43.9476 44.0381Z" fill="#1649FF"/>
<path d="M43.9476 50.905H33.1568C32.3441 50.905 31.6853 51.5638 31.6853 52.3765V53.3575C31.6853 54.1702 32.3441 54.829 33.1568 54.829H43.9476C44.7603 54.829 45.4191 54.1702 45.4191 53.3575V52.3765C45.4191 51.5638 44.7603 50.905 43.9476 50.905Z" fill="#1649FF"/>
<path d="M43.9476 57.7717H33.1568C32.3441 57.7717 31.6853 58.4305 31.6853 59.2432V60.2242C31.6853 61.0369 32.3441 61.6957 33.1568 61.6957H43.9476C44.7603 61.6957 45.4191 61.0369 45.4191 60.2242V59.2432C45.4191 58.4305 44.7603 57.7717 43.9476 57.7717Z" fill="#1649FF"/>
<path d="M60.6243 57.7717H49.8335C49.0208 57.7717 48.362 58.4305 48.362 59.2432V60.2242C48.362 61.0369 49.0208 61.6957 49.8335 61.6957H60.6243C61.437 61.6957 62.0958 61.0369 62.0958 60.2242V59.2432C62.0958 58.4305 61.437 57.7717 60.6243 57.7717Z" fill="#1649FF"/>
<path d="M60.6243 44.0381H49.8335C49.0208 44.0381 48.362 44.6969 48.362 45.5096V46.4905C48.362 47.3032 49.0208 47.962 49.8335 47.962H60.6243C61.437 47.962 62.0958 47.3032 62.0958 46.4905V45.5096C62.0958 44.6969 61.437 44.0381 60.6243 44.0381Z" fill="#1649FF"/>
<path d="M60.6243 50.905H49.8335C49.0208 50.905 48.362 51.5638 48.362 52.3765V53.3575C48.362 54.1702 49.0208 54.829 49.8335 54.829H60.6243C61.437 54.829 62.0958 54.1702 62.0958 53.3575V52.3765C62.0958 51.5638 61.437 50.905 60.6243 50.905Z" fill="#1649FF"/>
</g>
<defs>
<clipPath id="clip0_1065:20957">
<rect width="92" height="92" fill="white" transform="translate(0.890625)"/>
</clipPath>
</defs>
</svg>
